<?xml version="1.0" encoding="UTF-8"?>
<svg version="1.1" xmlns="http://www.w3.org/2000/svg" width="150" height="150">
<path d="M0 0 C12.59482837 7.96860846 21.70351221 21.14276409 30.47265625 32.90625 C30.95395996 33.5451416 31.43526367 34.1840332 31.93115234 34.84228516 C34.150617 37.86053298 35.72995419 40.29966209 36.47265625 43.96875 C37.13265625 43.96875 37.79265625 43.96875 38.47265625 43.96875 C40.26695911 47.69665383 42.05763321 51.42628949 43.84765625 55.15625 C44.35554688 56.21134766 44.8634375 57.26644531 45.38671875 58.35351562 C45.8765625 59.37509766 46.36640625 60.39667969 46.87109375 61.44921875 C47.32145996 62.38660889 47.77182617 63.32399902 48.23583984 64.28979492 C48.64398926 65.1738501 49.05213867 66.05790527 49.47265625 66.96875 C49.84326172 67.7625708 50.21386719 68.5563916 50.59570312 69.37426758 C51.69361321 72.62245534 51.90175354 75.5775844 52.10546875 79 C52.14703094 79.67236694 52.18859314 80.34473389 52.23141479 81.03747559 C52.31760264 82.45931816 52.3997268 83.88141221 52.47802734 85.30371094 C52.59578668 87.43491455 52.72641638 89.56500903 52.859375 91.6953125 C53.36629962 100.12394593 53.58742612 108.52314516 53.47265625 116.96875 C25.53247165 133.20537645 -7.0967929 139.11858907 -38.84375 131.296875 C-51.76223459 127.7694585 -63.07122556 122.92407725 -74.52734375 115.96875 C-74.38742485 110.84818205 -74.21055446 105.73055547 -74.00244141 100.61230469 C-73.93680711 98.87891906 -73.88048801 97.14515017 -73.83447266 95.41113281 C-73.50017484 83.13457882 -71.64077462 73.15487308 -66.52734375 61.96875 C-66.10952637 61.04545898 -65.69170898 60.12216797 -65.26123047 59.17089844 C-64.15993609 56.85664485 -62.99633076 54.59792659 -61.77734375 52.34375 C-61.14227905 51.15555664 -61.14227905 51.15555664 -60.49438477 49.94335938 C-56.42069959 42.48935024 -51.71692799 35.68072443 -46.52734375 28.96875 C-45.84542969 28.06382813 -45.16351563 27.15890625 -44.4609375 26.2265625 C-39.80125205 20.26711659 -34.64255845 14.85588363 -29.33984375 9.46875 C-28.66228027 8.77346191 -27.9847168 8.07817383 -27.28662109 7.36181641 C-19.6679221 -0.24566487 -10.73950777 -4.38211755 0 0 Z M-26.49243164 12.55493164 C-27.20520264 13.2689917 -27.91797363 13.98305176 -28.65234375 14.71875 C-29.39282959 15.45794678 -30.13331543 16.19714355 -30.89624023 16.95874023 C-37.88652449 24.08192825 -43.82106997 31.79965286 -49.52734375 39.96875 C-49.19734375 40.62875 -48.86734375 41.28875 -48.52734375 41.96875 C-45.28961731 40.59221002 -42.06402918 39.18918149 -38.83984375 37.78125 C-37.92783203 37.39388672 -37.01582031 37.00652344 -36.07617188 36.60742188 C-25.79824733 32.08513508 -22.32438951 26.26962486 -17.71484375 16.28125 C-17.21275391 15.22357422 -16.71066406 14.16589844 -16.19335938 13.07617188 C-13.59667454 8.21932215 -13.59667454 8.21932215 -12.52734375 2.96875 C-17.91554341 2.96875 -22.89789337 9.03456839 -26.49243164 12.55493164 Z M-8.52734375 2.96875 C-7.13675884 5.95039317 -5.73888859 8.92856819 -4.33984375 11.90625 C-3.95248047 12.73705078 -3.56511719 13.56785156 -3.16601562 14.42382812 C-1.9763564 16.950625 -0.75251079 19.45901536 0.47265625 21.96875 C0.84293945 22.78754639 1.21322266 23.60634277 1.59472656 24.44995117 C4.55234082 30.5183106 7.64995823 32.90875106 13.84765625 35.40625 C14.57726562 35.73044922 15.306875 36.05464844 16.05859375 36.38867188 C20.44978001 38.29805376 24.84391112 39.75355174 29.47265625 40.96875 C27.99074296 36.52301014 25.55619009 33.14797467 22.66015625 29.53125 C22.18239746 28.92941895 21.70463867 28.32758789 21.21240234 27.70751953 C17.50304118 23.10275416 13.61074451 18.68526042 9.59765625 14.34375 C9.06293701 13.76439697 8.52821777 13.18504395 7.97729492 12.58813477 C2.83346095 7.11732465 -0.67481362 3.58463472 -8.52734375 2.96875 Z M-10.52734375 8.96875 C-11.891239 11.58910018 -13.24366548 14.21431999 -14.58984375 16.84375 C-14.97978516 17.59011719 -15.36972656 18.33648437 -15.77148438 19.10546875 C-16.13564453 19.82089844 -16.49980469 20.53632813 -16.875 21.2734375 C-17.21539307 21.93327637 -17.55578613 22.59311523 -17.90649414 23.27294922 C-18.11137451 23.83256348 -18.31625488 24.39217773 -18.52734375 24.96875 C-18.19734375 25.62875 -17.86734375 26.28875 -17.52734375 26.96875 C-16.47546875 26.2675 -15.42359375 25.56625 -14.33984375 24.84375 C-10.9074571 22.8715117 -10.9074571 22.8715117 -7.83984375 23.65625 C-7.07671875 24.089375 -6.31359375 24.5225 -5.52734375 24.96875 C-4.20734375 25.29875 -2.88734375 25.62875 -1.52734375 25.96875 C-5.48734375 17.55375 -5.48734375 17.55375 -9.52734375 8.96875 C-9.85734375 8.96875 -10.18734375 8.96875 -10.52734375 8.96875 Z M-19.25 31.00390625 C-25.97763857 36.38005465 -29.19386571 45.39311357 -32.92285156 52.92089844 C-34.54360151 55.99963281 -36.32290712 58.89633269 -38.20703125 61.8203125 C-44.9974054 72.4751053 -50.12549137 81.71642223 -47.99609375 94.6640625 C-46.34379009 100.82533118 -42.42656468 103.90622896 -37.3125 107.38671875 C-32.63729845 110.04233814 -29.1365789 110.12970844 -23.828125 110.13671875 C-22.95971481 110.14004715 -22.09130463 110.14337555 -21.19657898 110.14680481 C-19.35477224 110.15187428 -17.51295629 110.15421313 -15.67114258 110.15405273 C-12.86849527 110.15622776 -10.0662489 110.17435132 -7.26367188 110.19335938 C-5.47265759 110.19629568 -3.68164144 110.19827889 -1.890625 110.19921875 C-1.05807693 110.20640427 -0.22552887 110.21358978 0.63224792 110.22099304 C8.50233601 110.19049173 13.93318893 109.07619656 19.78515625 103.40625 C24.36545357 99.02235134 24.36545357 99.02235134 26.47265625 97.96875 C26.99271732 95.57646909 27.27658293 93.39773014 27.47265625 90.96875 C27.56450195 90.19909912 27.65634766 89.42944824 27.75097656 88.63647461 C28.34555838 79.86805363 24.88206836 73.8177049 20.59765625 66.40625 C19.90356086 65.17146244 19.21135612 63.93561032 18.52099609 62.69873047 C17.15046052 60.24847764 15.76832055 57.80531094 14.37890625 55.36572266 C12.70912213 52.39013656 11.11632319 49.39461982 9.56640625 46.35546875 C3.86194127 34.93588728 3.86194127 34.93588728 -6.52734375 27.96875 C-7.15898438 27.72125 -7.790625 27.47375 -8.44140625 27.21875 C-12.68696424 26.70991908 -15.72631416 28.8469834 -19.25 31.00390625 Z M-36.31640625 39.9375 C-37.25742187 40.34355469 -38.1984375 40.74960937 -39.16796875 41.16796875 C-40.1528125 41.59722656 -41.13765625 42.02648438 -42.15234375 42.46875 C-43.14492188 42.89800781 -44.1375 43.32726563 -45.16015625 43.76953125 C-47.6173017 44.83271918 -50.07293892 45.899254 -52.52734375 46.96875 C-51.37845714 55.34095563 -50.11959545 63.66871456 -48.52734375 71.96875 C-45.76282873 69.51220442 -44.22678968 66.85345483 -42.49609375 63.6015625 C-41.93277344 62.55097656 -41.36945312 61.50039062 -40.7890625 60.41796875 C-40.20769531 59.32097656 -39.62632813 58.22398438 -39.02734375 57.09375 C-37.87205067 54.92917649 -36.71583275 52.76509629 -35.55859375 50.6015625 C-35.04876953 49.64137207 -34.53894531 48.68118164 -34.01367188 47.69189453 C-33.0063036 45.84626613 -31.94523583 44.0291336 -30.83789062 42.24169922 C-29.360843 40.11726341 -29.360843 40.11726341 -29.52734375 37.96875 C-32.16616848 37.96875 -33.89314922 38.88644876 -36.31640625 39.9375 Z M9.47265625 37.96875 C15.28377522 49.73707751 21.31921496 61.37597047 27.47265625 72.96875 C28.13265625 72.96875 28.79265625 72.96875 29.47265625 72.96875 C30.79265625 64.38875 32.11265625 55.80875 33.47265625 46.96875 C29.51265625 45.31875 25.55265625 43.66875 21.47265625 41.96875 C16.41015625 39.65625 16.41015625 39.65625 14.3125 38.66796875 C12.33330949 37.79112378 12.33330949 37.79112378 9.47265625 37.96875 Z M-56.52734375 51.96875 C-58.15818702 55.3409565 -59.78096099 58.7169859 -61.40234375 62.09375 C-61.86253906 63.04507813 -62.32273437 63.99640625 -62.796875 64.9765625 C-63.24160156 65.9046875 -63.68632813 66.8328125 -64.14453125 67.7890625 C-64.75723877 69.06160889 -64.75723877 69.06160889 -65.38232422 70.35986328 C-67.63014728 75.48144904 -68.7812678 79.85609179 -68.94140625 85.4609375 C-68.98007813 86.65976563 -69.01875 87.85859375 -69.05859375 89.09375 C-69.08953125 90.33125 -69.12046875 91.56875 -69.15234375 92.84375 C-69.19101563 94.10445312 -69.2296875 95.36515625 -69.26953125 96.6640625 C-69.36351364 99.76548137 -69.44917786 102.86689886 -69.52734375 105.96875 C-61.63587365 98.43775446 -51.26291786 85.30215787 -50.98828125 74.0234375 C-51.31967985 69.84726887 -52.34797256 65.98033375 -53.52734375 61.96875 C-53.91835226 59.95095301 -54.29612479 57.93047835 -54.65234375 55.90625 C-54.93659717 54.59212455 -55.22478127 53.27878116 -55.52734375 51.96875 C-55.85734375 51.96875 -56.18734375 51.96875 -56.52734375 51.96875 Z M36.47265625 51.96875 C35.99101437 54.32243393 35.51228977 56.67665155 35.03515625 59.03125 C34.90044922 59.68802734 34.76574219 60.34480469 34.62695312 61.02148438 C33.75827008 65.32252481 32.97358041 69.60633282 32.47265625 73.96875 C32.31152344 75.18046875 32.15039062 76.3921875 31.984375 77.640625 C32.07338135 83.89822364 36.10493387 89.06772972 39.28515625 94.21875 C39.92775391 95.29382813 40.57035156 96.36890625 41.23242188 97.4765625 C43.82135105 101.77981887 46.39381766 105.9956792 49.47265625 109.96875 C49.3321839 105.67689059 49.18429263 101.38531639 49.03515625 97.09375 C48.99583984 95.88976562 48.95652344 94.68578125 48.91601562 93.4453125 C48.7925971 89.951619 48.637604 86.46070158 48.47265625 82.96875 C48.4461499 82.0701123 48.41964355 81.17147461 48.39233398 80.24560547 C48.00373131 73.32751827 45.53394834 67.96242941 42.41015625 61.84375 C41.93771484 60.88726562 41.46527344 59.93078125 40.97851562 58.9453125 C39.82373596 56.61242429 38.65515978 54.28767303 37.47265625 51.96875 C37.14265625 51.96875 36.81265625 51.96875 36.47265625 51.96875 Z M-51.52734375 85.96875 C-54.01472715 89.50379549 -56.27611834 93.19335625 -58.58984375 96.84375 C-59.25306641 97.87628906 -59.91628906 98.90882812 -60.59960938 99.97265625 C-61.22673828 100.95878906 -61.85386719 101.94492188 -62.5 102.9609375 C-63.08015869 103.87214355 -63.66031738 104.78334961 -64.25805664 105.72216797 C-65.69131191 107.82890759 -65.69131191 107.82890759 -65.52734375 109.96875 C-56.94734375 109.96875 -48.36734375 109.96875 -39.52734375 109.96875 C-43.12719605 105.99004428 -43.12719605 105.99004428 -46.72265625 104.234375 C-49.52734375 101.96875 -49.52734375 101.96875 -50.33203125 98.078125 C-50.38484413 96.62577092 -50.4074791 95.17205493 -50.40234375 93.71875 C-50.42296875 92.97367187 -50.44359375 92.22859375 -50.46484375 91.4609375 C-50.51177314 89.63069136 -50.52308598 87.79959275 -50.52734375 85.96875 C-50.85734375 85.96875 -51.18734375 85.96875 -51.52734375 85.96875 Z M31.47265625 88.96875 C31.44429687 89.67 31.4159375 90.37125 31.38671875 91.09375 C30.91197165 95.81555899 30.46465184 98.9274831 27.11328125 102.4453125 C24.62083113 104.38153788 22.06922273 106.17702331 19.47265625 107.96875 C19.47265625 108.29875 19.47265625 108.62875 19.47265625 108.96875 C27.39265625 108.96875 35.31265625 108.96875 43.47265625 108.96875 C40.10009735 102.06676899 36.76464115 95.34541328 32.47265625 88.96875 C32.14265625 88.96875 31.81265625 88.96875 31.47265625 88.96875 Z M3.47265625 121.96875 C1.79407072 123.33934519 0.08883692 124.67860644 -1.65234375 125.96875 C-2.96079156 126.94669023 -4.25898031 127.93935359 -5.52734375 128.96875 C-5.52734375 129.29875 -5.52734375 129.62875 -5.52734375 129.96875 C11.88817714 131.11075137 34.18634799 125.2103632 48.47265625 114.96875 C48.80265625 114.30875 49.13265625 113.64875 49.47265625 112.96875 C44.52910526 112.74432215 39.5885861 112.58208552 34.64111328 112.47436523 C32.96285295 112.42942046 31.28493871 112.36823605 29.60791016 112.28979492 C17.72928995 111.74857131 11.63127325 112.58065842 3.47265625 121.96875 Z M-68.52734375 113.96875 C-55.82337601 123.83600986 -34.69027255 130.27424892 -18.65234375 130.03125 C-17.87117188 130.02222656 -17.09 130.01320312 -16.28515625 130.00390625 C-15.70507812 129.99230469 -15.125 129.98070312 -14.52734375 129.96875 C-15.24664062 129.26363281 -15.9659375 128.55851563 -16.70703125 127.83203125 C-18.58612153 125.97585671 -20.182515 124.15144041 -21.84765625 122.07421875 C-27.06466378 116.32047808 -32.11936787 113.79343209 -39.87246704 113.33580017 C-49.42734082 113.01978583 -58.98813316 113.41197159 -68.52734375 113.96875 Z M-15.71484375 113.46875 C-16.76220703 113.51644531 -17.80957031 113.56414062 -18.88867188 113.61328125 C-21.43500674 113.72955225 -23.98121464 113.84807125 -26.52734375 113.96875 C-23.14964155 117.4946512 -19.69267639 120.45363403 -15.71484375 123.28125 C-14.73902344 123.97863281 -13.76320313 124.67601562 -12.7578125 125.39453125 C-12.02175781 125.91402344 -11.28570312 126.43351562 -10.52734375 126.96875 C-6.85606476 125.36310789 -4.04029134 123.079478 -0.96484375 120.53125 C0.46021484 119.35755859 0.46021484 119.35755859 1.9140625 118.16015625 C3.8671069 116.48739609 5.67421671 114.7979881 7.47265625 112.96875 C-0.27269938 112.89991089 -7.97865737 113.10154167 -15.71484375 113.46875 Z " fill="#B8A070" transform="translate(84.52734375,7.03125)"/>
</svg>
