<?xml version="1.0" encoding="UTF-8"?>
<svg version="1.1" xmlns="http://www.w3.org/2000/svg" width="150" height="150">
<path d="M0 0 C0.96134857 -0.01268417 1.92269714 -0.02536835 2.91317749 -0.03843689 C3.94552521 -0.03550125 4.97787292 -0.03256561 6.04150391 -0.02954102 C7.10922028 -0.03478287 8.17693665 -0.04002472 9.27700806 -0.04542542 C11.53476085 -0.05184634 13.7925471 -0.05050774 16.05029297 -0.04199219 C19.49849344 -0.0334955 22.94503015 -0.06222295 26.39306641 -0.09399414 C28.58837841 -0.09560662 30.78369334 -0.09502773 32.97900391 -0.09204102 C34.00730316 -0.10327499 35.03560242 -0.11450897 36.09506226 -0.12608337 C41.89562217 -0.06984961 45.72340045 0.24311796 50.14306641 4.40405273 C52.67711213 8.67590735 53.52255687 11.82814297 53.54711914 16.77319336 C53.55980331 18.0146814 53.57248749 19.25616943 53.58555603 20.53527832 C53.58350453 21.87695483 53.58051645 23.21863019 53.57666016 24.56030273 C53.58122642 25.94983169 53.58653331 27.33935838 53.59254456 28.72888184 C53.60145515 31.6338827 53.59907565 34.53860835 53.58911133 37.44360352 C53.57761482 41.15595985 53.59785255 44.86736591 53.62702847 48.57959747 C53.6454219 51.44677708 53.64509202 54.31373015 53.63939095 57.18095398 C53.63923816 58.54922317 53.64524699 59.91750814 53.65768242 61.28572083 C53.76073931 74.48054868 53.76073931 74.48054868 49.14306641 79.40405273 C44.05075469 84.16782821 37.72154176 83.56318188 31.15087891 83.57202148 C29.85463089 83.57701408 29.85463089 83.57701408 28.53219604 83.58210754 C26.70831838 83.58715816 24.88443152 83.58951645 23.06054688 83.58935547 C20.28451151 83.59153979 17.50887519 83.60970934 14.73291016 83.62866211 C12.95556776 83.63159693 11.17822348 83.63358113 9.40087891 83.63452148 C8.577742 83.641707 7.7546051 83.64889252 6.90652466 83.65629578 C0.62298684 83.63164258 -4.76735832 83.17564916 -9.73193359 78.96655273 C-12.94846745 75.08779132 -12.99068789 72.16979179 -13.03393555 67.28369141 C-13.04677078 66.02195602 -13.05960602 64.76022064 -13.0728302 63.46025085 C-13.0809981 62.08084507 -13.08844173 60.70143483 -13.09521484 59.32202148 C-13.09929037 58.62617762 -13.1033659 57.93033375 -13.10756493 57.2134037 C-13.12840687 53.53013025 -13.14271653 49.84689384 -13.15209961 46.16357422 C-13.16315903 42.36715004 -13.19755797 38.5713128 -13.23727131 34.77509594 C-13.26346619 31.84876953 -13.27179394 28.92258239 -13.27538109 25.99614906 C-13.28023986 24.59715118 -13.29183374 23.19815922 -13.31041908 21.79927635 C-13.33486631 19.83719472 -13.33142024 17.87482639 -13.3269043 15.91259766 C-13.33277054 14.79801682 -13.33863678 13.68343597 -13.34468079 12.53507996 C-12.60674291 7.79798745 -10.34117792 4.81456306 -6.91049194 1.55430603 C-4.43411028 0.16721802 -2.83004497 0.01812767 0 0 Z M-7.85693359 8.40405273 C-9.2052696 11.10072474 -9.00646212 13.22377107 -9.03393555 16.24316406 C-9.04677078 17.46816116 -9.05960602 18.69315826 -9.0728302 19.95527649 C-9.08099792 21.29887488 -9.08844159 22.64247784 -9.09521484 23.98608398 C-9.09929037 24.66202795 -9.1033659 25.33797192 -9.10756493 26.03439903 C-9.12842488 29.61277333 -9.14272632 33.1911093 -9.15209961 36.76953125 C-9.16315837 40.46183698 -9.1975512 44.1535391 -9.23727131 47.8456316 C-9.26344498 50.68785201 -9.27179209 53.52992882 -9.27538109 56.37225914 C-9.28024595 57.73300944 -9.29185731 59.09375337 -9.31041908 60.45438576 C-9.33481921 62.36169496 -9.33142484 64.2692979 -9.3269043 66.17675781 C-9.33277054 67.26104568 -9.33863678 68.34533356 -9.34468079 69.46247864 C-8.73915589 73.11436299 -7.3977539 74.76269564 -4.85693359 77.40405273 C-0.5141917 79.95585904 4.01901224 79.7103767 8.91650391 79.70483398 C10.17945786 79.71126167 10.17945786 79.71126167 11.46792603 79.71781921 C13.24472151 79.72354789 15.02154044 79.72407357 16.79833984 79.71972656 C19.50220216 79.71657125 22.20496455 79.74002727 24.90869141 79.76538086 C26.64046087 79.76765463 28.37223325 79.76835699 30.10400391 79.76733398 C30.90526703 79.77654373 31.70653015 79.78575348 32.53207397 79.79524231 C37.79665567 79.75232886 41.53875507 79.04316192 46.14306641 76.40405273 C48.91135596 72.69384305 49.52321837 70.00976987 49.54711914 65.42382812 C49.55980331 64.24232681 49.57248749 63.0608255 49.58555603 61.84352112 C49.58262039 60.57572311 49.57968475 59.30792511 49.57666016 58.00170898 C49.58190201 56.69125107 49.58714386 55.38079315 49.59254456 54.03062439 C49.60146223 51.260878 49.59906839 48.49142015 49.58911133 45.72167969 C49.57762584 42.18303185 49.59783169 38.64538258 49.62702847 35.10686588 C49.64985304 31.71759496 49.64292119 28.32855483 49.63916016 24.93920898 C49.65039413 23.67343521 49.66162811 22.40766144 49.67320251 21.10353088 C49.6529178 12.43602031 49.6529178 12.43602031 45.14306641 5.40405273 C42.80388048 4.23445977 41.38005721 4.25922893 38.77270508 4.22705078 C37.86804001 4.21421555 36.96337494 4.20138031 36.03129578 4.18815613 C35.05110977 4.1807692 34.07092377 4.17338226 33.06103516 4.16577148 C32.05470535 4.15769974 31.04837555 4.14962799 30.0115509 4.14131165 C27.87889329 4.12746557 25.74621347 4.11674576 23.61352539 4.10888672 C20.35406421 4.0916768 17.09561794 4.04779521 13.83642578 4.00366211 C11.76546971 3.99353506 9.694505 3.985019 7.62353516 3.97827148 C6.64942184 3.9607634 5.67530853 3.94325531 4.67167664 3.92521667 C-0.76052915 3.94260198 -3.99385825 4.15432375 -7.85693359 8.40405273 Z " fill="#BCA57C" transform="translate(91.85693359375,31.595947265625)"/>
<path d="M0 0 C14.19 0 28.38 0 43 0 C43 3.3 43 6.6 43 10 C44.98 10 46.96 10 49 10 C49 11.65 49 13.3 49 15 C47.02 15 45.04 15 43 15 C43 25.56 43 36.12 43 47 C44.98 47 46.96 47 49 47 C49 48.65 49 50.3 49 52 C47.02 52 45.04 52 43 52 C43 55.3 43 58.6 43 62 C28.81 62 14.62 62 0 62 C0 41.54 0 21.08 0 0 Z M4 4 C4 22.15 4 40.3 4 59 C15.55 59 27.1 59 39 59 C39 56.69 39 54.38 39 52 C36.69 52 34.38 52 32 52 C32 50.35 32 48.7 32 47 C34.31 47 36.62 47 39 47 C39 36.44 39 25.88 39 15 C37.02 15 35.04 15 33 15 C33 13.35 33 11.7 33 10 C34.98 10 36.96 10 39 10 C39 8.02 39 6.04 39 4 C27.45 4 15.9 4 4 4 Z " fill="#BCA57C" transform="translate(88,43)"/>
<path d="M0 0 C1.546875 0.99 1.546875 0.99 3.125 2 C8.52226138 6.89312158 11.51133225 13.65903753 12.55078125 20.765625 C12.91462952 31.03654189 10.63566264 38.26706505 3.75 45.875 C-3.53471989 52.45926606 -10.6063063 53.72041598 -20.33203125 53.45703125 C-25.66724079 52.79226073 -29.56893323 50.95978052 -34 48 C-35.3921875 47.13375 -35.3921875 47.13375 -36.8125 46.25 C-43.13676695 39.74503971 -45.520005 31.94429706 -46 23 C-45.62087011 14.63468251 -42.17638267 7.81677242 -36.00390625 2.17578125 C-25.24343735 -6.22511413 -11.67841767 -7.52781006 0 0 Z M-36 8 C-40.25226252 14.29925737 -42.80179997 20.78830019 -41.625 28.4375 C-39.714455 36.27073448 -35.33400035 41.85661198 -28.75 46.4375 C-22.52927321 49.97200386 -15.39508073 50.01319618 -8.4921875 48.421875 C-1.51856982 45.74905986 3.86583257 40.25443149 7.19921875 33.609375 C9.14845361 27.25772189 9.16665632 19.56652659 6.3125 13.5 C2.37476818 6.92329703 -3.34431172 2.28269764 -10.5625 -0.25 C-20.07976591 -2.32649438 -29.23373156 0.9683877 -36 8 Z " fill="#BCA57C" transform="translate(50,50)"/>
<path d="M0 0 C0.99 0.33 1.98 0.66 3 1 C3 1.66 3 2.32 3 3 C3.763125 3.12375 4.52625 3.2475 5.3125 3.375 C8 4 8 4 11 6 C10.67 7.65 10.34 9.3 10 11 C5.25 10.125 5.25 10.125 3 9 C3 11.31 3 13.62 3 16 C3.928125 16.268125 4.85625 16.53625 5.8125 16.8125 C10.29053421 18.48078725 10.29053421 18.48078725 12 21 C13.08444457 24.56317503 13.30100515 26.30293543 11.8125 29.75 C9.94367317 32.06992296 8.79164526 33.04037194 6 34 C5.01 34 4.02 34 3 34 C2.505 36.475 2.505 36.475 2 39 C1.01 38.67 0.02 38.34 -1 38 C-1 36.68 -1 35.36 -1 34 C-1.9075 33.896875 -2.815 33.79375 -3.75 33.6875 C-7.01961575 32.99585051 -8.53717737 32.17865079 -11 30 C-10.67 28.35 -10.34 26.7 -10 25 C-6.85262818 25.69941596 -3.97411124 26.76078698 -1 28 C-1 25.69 -1 23.38 -1 21 C-1.928125 20.731875 -2.85625 20.46375 -3.8125 20.1875 C-8.54545455 18.42424242 -8.54545455 18.42424242 -10 16 C-10.76595745 9.10638298 -10.76595745 9.10638298 -8.3125 5.5625 C-5.81374721 3.87415352 -3.97752446 3.33083605 -1 3 C-0.67 2.01 -0.34 1.02 0 0 Z M-4 9 C-3.65555119 11.47266765 -3.65555119 11.47266765 -3 14 C-2.34 14.33 -1.68 14.66 -1 15 C-1 12.69 -1 10.38 -1 8 C-2.2236068 7.9254644 -2.2236068 7.9254644 -4 9 Z M3 22 C3 24.31 3 26.62 3 29 C3.99 28.67 4.98 28.34 6 28 C6.33 27.01 6.66 26.02 7 25 C6.02149805 23.97895449 5.02019573 22.9793879 4 22 C3.67 22 3.34 22 3 22 Z " fill="#BCA67C" transform="translate(35,55)"/>
<path d="M0 0 C6.06732052 1.03767051 11.4373852 2.33961901 17 5 C16.01 6.65 15.02 8.3 14 10 C25.15072288 18.04138669 38.60488025 21.42329268 52.1953125 19.5625 C60.03697772 18.18374568 66.30239538 15.64235328 73.16015625 11.62109375 C75.72965083 10.15432587 78.22907876 9.02193609 81 8 C81.99 9.485 81.99 9.485 83 11 C70.35854184 20.70483624 56.13250063 26.43915833 40 25 C30.60162125 23.75593061 23.12514168 20.9239928 14.9609375 16.328125 C12.21138221 14.8098547 12.21138221 14.8098547 9.8515625 15.171875 C7.8668743 16.05954145 5.91678919 16.97314865 4 18 C3.32678716 15.75194998 2.66165877 13.50147776 2 11.25 C1.62875 9.99703125 1.2575 8.7440625 0.875 7.453125 C0 4 0 4 0 0 Z " fill="#BCA57C" transform="translate(29,111)"/>
<path d="M0 0 C3 1 3 1 4.60546875 3.6171875 C5.12753906 4.69226563 5.64960937 5.76734375 6.1875 6.875 C6.71730469 7.94492187 7.24710937 9.01484375 7.79296875 10.1171875 C9 13 9 13 9 16 C6.20689395 15.71889511 3.41601125 15.42563948 0.625 15.125 C-0.1690625 15.04636719 -0.963125 14.96773437 -1.78125 14.88671875 C-7.7734375 14.2265625 -7.7734375 14.2265625 -10 12 C-8.515 10.02 -8.515 10.02 -7 8 C-25.33785359 4.58107814 -41.00808436 6.25912283 -57.16796875 15.98046875 C-60.96796757 18.69026101 -64.00955726 21.85949018 -67.0625 25.375 C-67.701875 25.91125 -68.34125 26.4475 -69 27 C-71.25 26.75 -71.25 26.75 -73 26 C-68.35566191 15.57912199 -56.84889012 8.72050469 -46.625 4.6875 C-32.16490067 -0.06426069 -17.69220957 0.4392998 -3 4 C-2.01 2.68 -1.02 1.36 0 0 Z " fill="#BCA57C" transform="translate(99,11)"/>
<path d="M0 0 C3.8063457 0.67170806 7.35206816 1.72746564 11 3 C11.103125 3.763125 11.20625 4.52625 11.3125 5.3125 C12.04364039 8.17059424 12.76951913 9.15742885 15 11 C14.690625 11.556875 14.38125 12.11375 14.0625 12.6875 C12.88455424 14.98464929 12.88455424 14.98464929 12.5625 17.625 C12 20 12 20 9 22 C8.01 21.67 7.02 21.34 6 21 C5.67 21.99 5.34 22.98 5 24 C2.625 24.125 2.625 24.125 0 24 C-0.66 23.34 -1.32 22.68 -2 22 C-4.06874034 21.3574765 -4.06874034 21.3574765 -6 21 C-6.5534764 18.92446352 -7 17.15634036 -7 15 C-7.99 14.67 -8.98 14.34 -10 14 C-10 12.68 -10 11.36 -10 10 C-9.34 9.67 -8.68 9.34 -8 9 C-7.62690101 7.34178227 -7.29299023 5.67422986 -7 4 C-6 3 -6 3 -3.4375 2.9375 C-2.2309375 2.9684375 -2.2309375 2.9684375 -1 3 C-0.67 2.01 -0.34 1.02 0 0 Z M-0.6875 9.5 C-1.120625 9.995 -1.55375 10.49 -2 11 C-1.34 12.65 -0.68 14.3 0 16 C1.65 16 3.3 16 5 16 C5.66 14.35 6.32 12.7 7 11 C5.68798827 9.43750191 5.68798827 9.43750191 4 8 C0.99740483 7.66781808 0.99740483 7.66781808 -0.6875 9.5 Z " fill="#BCA57C" transform="translate(107,62)"/>
</svg>
