<?xml version="1.0" encoding="UTF-8"?>
<svg version="1.1" xmlns="http://www.w3.org/2000/svg" width="150" height="150">
<path d="M0 0 C8.83840864 7.59448446 13.33389083 14.59783771 14.69921875 26.203125 C13.56911033 37.6925606 9.38314621 46.52331802 0.94921875 54.265625 C-6.19400473 60.05572685 -14.88593726 63.59269459 -24.15625 63.32421875 C-33.24586614 62.21091693 -41.30941084 58.62591764 -47.67578125 52.015625 C-54.37247561 43.42025102 -57.82457537 34.992991 -56.67578125 24.015625 C-54.72706233 13.63337464 -49.37360753 5.05424324 -40.67578125 -0.984375 C-28.03318589 -8.98167436 -12.14243523 -9.00490087 0 0 Z M-24.67578125 -2.984375 C-26.68819324 -0.88150041 -26.68819324 -0.88150041 -28.73828125 1.765625 C-29.45113281 2.64734375 -30.16398437 3.5290625 -30.8984375 4.4375 C-32.50482305 6.76764168 -33.25715505 8.25913251 -33.67578125 11.015625 C-30.92499241 11.93255461 -29.31629212 12.12448583 -26.48828125 12.078125 C-25.23015625 12.0575 -23.97203125 12.036875 -22.67578125 12.015625 C-22.67578125 7.065625 -22.67578125 2.115625 -22.67578125 -2.984375 C-23.33578125 -2.984375 -23.99578125 -2.984375 -24.67578125 -2.984375 Z M-18.67578125 -2.984375 C-18.67578125 1.965625 -18.67578125 6.915625 -18.67578125 12.015625 C-17.43828125 12.056875 -16.20078125 12.098125 -14.92578125 12.140625 C-14.2296875 12.16382813 -13.53359375 12.18703125 -12.81640625 12.2109375 C-10.3742215 11.98811042 -8.78941354 11.224775 -6.67578125 10.015625 C-7.73048413 8.59314388 -8.7949589 7.17790615 -9.86328125 5.765625 C-10.75080078 4.58226562 -10.75080078 4.58226562 -11.65625 3.375 C-13.96555853 0.52823133 -13.96555853 0.52823133 -18.67578125 -2.984375 Z M-40.67578125 4.015625 C-41.45953125 4.551875 -42.24328125 5.088125 -43.05078125 5.640625 C-43.58703125 6.094375 -44.12328125 6.548125 -44.67578125 7.015625 C-44.67578125 7.675625 -44.67578125 8.335625 -44.67578125 9.015625 C-42.36578125 9.345625 -40.05578125 9.675625 -37.67578125 10.015625 C-36.8369967 8.72749158 -36.00491342 7.43499244 -35.17578125 6.140625 C-34.4796875 5.06167969 -34.4796875 5.06167969 -33.76953125 3.9609375 C-32.51241624 2.09702034 -32.51241624 2.09702034 -32.67578125 0.015625 C-35.96703175 0.015625 -38.03987007 2.17048718 -40.67578125 4.015625 Z M-9.67578125 0.015625 C-7.69578125 3.315625 -5.71578125 6.615625 -3.67578125 10.015625 C-0.21078125 9.520625 -0.21078125 9.520625 3.32421875 9.015625 C0.18043169 4.48857163 -2.83587062 2.43558031 -7.67578125 0.015625 C-8.33578125 0.015625 -8.99578125 0.015625 -9.67578125 0.015625 Z M-47.67578125 12.015625 C-51.80416284 16.48803839 -52.67578125 21.05371187 -52.67578125 27.015625 C-49.04578125 27.015625 -45.41578125 27.015625 -41.67578125 27.015625 C-41.01578125 22.725625 -40.35578125 18.435625 -39.67578125 14.015625 C-44.93791646 11.91021574 -44.93791646 11.91021574 -47.67578125 12.015625 Z M-1.67578125 14.015625 C-1.01578125 18.305625 -0.35578125 22.595625 0.32421875 27.015625 C3.62421875 27.015625 6.92421875 27.015625 10.32421875 27.015625 C10.01455406 18.95423324 10.01455406 18.95423324 6.32421875 12.015625 C3.58635396 11.91021574 3.58635396 11.91021574 -1.67578125 14.015625 Z M-35.67578125 14.015625 C-37.12430762 17.63694092 -37.93046768 19.68670826 -38.30078125 23.328125 C-38.42453125 24.545 -38.54828125 25.761875 -38.67578125 27.015625 C-33.39578125 27.015625 -28.11578125 27.015625 -22.67578125 27.015625 C-22.67578125 23.055625 -22.67578125 19.095625 -22.67578125 15.015625 C-26.96578125 14.685625 -31.25578125 14.355625 -35.67578125 14.015625 Z M-18.67578125 15.015625 C-18.67578125 18.975625 -18.67578125 22.935625 -18.67578125 27.015625 C-13.39578125 27.015625 -8.11578125 27.015625 -2.67578125 27.015625 C-2.82015625 25.5925 -2.96453125 24.169375 -3.11328125 22.703125 C-3.19449219 21.90261719 -3.27570313 21.10210937 -3.359375 20.27734375 C-3.62843818 17.85475321 -3.62843818 17.85475321 -4.67578125 15.015625 C-9.29578125 15.015625 -13.91578125 15.015625 -18.67578125 15.015625 Z M-52.67578125 31.015625 C-52.2098963 36.72271564 -50.73820341 40.17502223 -47.67578125 45.015625 C-43.22078125 44.520625 -43.22078125 44.520625 -38.67578125 44.015625 C-39.66578125 39.725625 -40.65578125 35.435625 -41.67578125 31.015625 C-45.30578125 31.015625 -48.93578125 31.015625 -52.67578125 31.015625 Z M-38.67578125 31.015625 C-37.68578125 34.975625 -36.69578125 38.935625 -35.67578125 43.015625 C-29.24078125 42.520625 -29.24078125 42.520625 -22.67578125 42.015625 C-22.67578125 38.385625 -22.67578125 34.755625 -22.67578125 31.015625 C-27.95578125 31.015625 -33.23578125 31.015625 -38.67578125 31.015625 Z M-18.67578125 31.015625 C-18.67578125 34.645625 -18.67578125 38.275625 -18.67578125 42.015625 C-14.38578125 42.345625 -10.09578125 42.675625 -5.67578125 43.015625 C-5.18078125 41.5925 -4.68578125 40.169375 -4.17578125 38.703125 C-3.89734375 37.90261719 -3.61890625 37.10210937 -3.33203125 36.27734375 C-2.53645018 33.92793078 -2.53645018 33.92793078 -2.67578125 31.015625 C-7.95578125 31.015625 -13.23578125 31.015625 -18.67578125 31.015625 Z M0.32421875 31.015625 C-1.16078125 37.450625 -1.16078125 37.450625 -2.67578125 44.015625 C-0.36578125 44.345625 1.94421875 44.675625 4.32421875 45.015625 C5.14535052 43.62485199 5.9557437 42.22773607 6.76171875 40.828125 C7.44041016 39.66216797 7.44041016 39.66216797 8.1328125 38.47265625 C9.34813374 35.96630523 9.9004845 33.75772135 10.32421875 31.015625 C7.02421875 31.015625 3.72421875 31.015625 0.32421875 31.015625 Z M-33.67578125 46.015625 C-32.78890625 47.43875 -31.90203125 48.861875 -30.98828125 50.328125 C-30.48941406 51.12863281 -29.99054687 51.92914063 -29.4765625 52.75390625 C-27.48362606 55.52799449 -27.48362606 55.52799449 -22.67578125 58.015625 C-22.67578125 54.055625 -22.67578125 50.095625 -22.67578125 46.015625 C-26.30578125 46.015625 -29.93578125 46.015625 -33.67578125 46.015625 Z M-18.67578125 46.015625 C-18.67578125 49.975625 -18.67578125 53.935625 -18.67578125 58.015625 C-14.08072518 54.30423356 -10.69475836 51.08750655 -7.67578125 46.015625 C-11.30578125 46.015625 -14.93578125 46.015625 -18.67578125 46.015625 Z M-44.67578125 49.015625 C-40.62777845 52.71631395 -36.84836225 55.97065112 -31.67578125 58.015625 C-31.01578125 57.685625 -30.35578125 57.355625 -29.67578125 57.015625 C-30.30806641 56.18417969 -30.30806641 56.18417969 -30.953125 55.3359375 C-31.77490234 54.24925781 -31.77490234 54.24925781 -32.61328125 53.140625 C-33.15855469 52.42132813 -33.70382813 51.70203125 -34.265625 50.9609375 C-35.67578125 49.015625 -35.67578125 49.015625 -36.67578125 47.015625 C-40.39177316 46.81476057 -41.4478657 46.8636813 -44.67578125 49.015625 Z M-4.67578125 47.015625 C-7.58749914 50.68542704 -7.58749914 50.68542704 -8.67578125 55.015625 C-4.24119152 53.6218968 -1.80199751 51.40980265 1.32421875 48.015625 C-1.64578125 47.520625 -1.64578125 47.520625 -4.67578125 47.015625 Z " fill="#B8A070" transform="translate(77.67578125,13.984375)"/>
<path d="M0 0 C3.72528469 1.36275525 5.70351071 4.20563081 8.01953125 7.30126953 C8.75236328 8.22456055 8.75236328 8.22456055 9.5 9.16650391 C10.69291643 10.67519233 11.85905975 12.20498459 13.01953125 13.73876953 C13.67953125 11.75876953 14.33953125 9.77876953 15.01953125 7.73876953 C19.35679507 7.5132719 23.69080668 7.35163328 28.03222656 7.24438477 C29.50288407 7.19961027 30.97315253 7.13855859 32.44238281 7.05981445 C42.84809272 6.51681527 48.7723027 7.70567737 56.69042969 14.69213867 C58.92520297 16.92325223 58.92520297 16.92325223 62.01953125 17.73876953 C62.01953125 15.75876953 62.01953125 13.77876953 62.01953125 11.73876953 C66.30953125 11.73876953 70.59953125 11.73876953 75.01953125 11.73876953 C75.01953125 9.42876953 75.01953125 7.11876953 75.01953125 4.73876953 C76.33953125 4.73876953 77.65953125 4.73876953 79.01953125 4.73876953 C79.01953125 7.04876953 79.01953125 9.35876953 79.01953125 11.73876953 C85.94953125 11.73876953 92.87953125 11.73876953 100.01953125 11.73876953 C100.01953125 13.05876953 100.01953125 14.37876953 100.01953125 15.73876953 C93.08953125 15.73876953 86.15953125 15.73876953 79.01953125 15.73876953 C79.01953125 29.26876953 79.01953125 42.79876953 79.01953125 56.73876953 C86.93953125 56.73876953 94.85953125 56.73876953 103.01953125 56.73876953 C103.01953125 58.05876953 103.01953125 59.37876953 103.01953125 60.73876953 C93.77953125 60.73876953 84.53953125 60.73876953 75.01953125 60.73876953 C75.01953125 57.43876953 75.01953125 54.13876953 75.01953125 50.73876953 C70.72953125 50.73876953 66.43953125 50.73876953 62.01953125 50.73876953 C62.01953125 41.16876953 62.01953125 31.59876953 62.01953125 21.73876953 C60.36953125 21.73876953 58.71953125 21.73876953 57.01953125 21.73876953 C55.61015939 20.31210477 54.26428791 18.82205269 52.95703125 17.30126953 C43.81598735 9.17872635 29.52066502 11.49381519 18.01953125 11.73876953 C18.62136874 13.75922396 19.29259221 15.75987992 20.01953125 17.73876953 C22.25600756 18.85700769 23.66844654 18.93273014 26.15234375 19.05517578 C27.36083984 19.11801758 27.36083984 19.11801758 28.59375 19.18212891 C29.43550781 19.22144531 30.27726562 19.26076172 31.14453125 19.30126953 C31.99402344 19.34445313 32.84351563 19.38763672 33.71875 19.43212891 C35.81881348 19.53831189 37.91915073 19.6390545 40.01953125 19.73876953 C40.01953125 21.05876953 40.01953125 22.37876953 40.01953125 23.73876953 C20.89698381 25.50222611 8.34478642 24.01353717 -7.06323242 12.2043457 C-11.56292374 8.76468609 -14.25682469 7.33944553 -19.98046875 7.73876953 C-19.98046875 8.72876953 -19.98046875 9.71876953 -19.98046875 10.73876953 C-17.53119242 12.48481805 -15.12793557 14.03165032 -12.54296875 15.55126953 C-11.14751873 16.3895858 -9.75299386 17.2294439 -8.359375 18.07080078 C-7.62920166 18.50384521 -6.89902832 18.93688965 -6.14672852 19.38305664 C-3.98046875 20.73876953 -3.98046875 20.73876953 -2.12475586 22.14331055 C5.09765636 27.54187219 13.47443527 30.18915819 21.90942383 33.11791992 C24.56022007 34.04365245 27.19663282 35.00402073 29.83398438 35.96728516 C40.37487883 39.71964361 49.78635378 41.80482965 61.01953125 41.73876953 C61.01953125 43.05876953 61.01953125 44.37876953 61.01953125 45.73876953 C48.4920301 46.66001365 38.38947342 44.68457753 26.63598633 40.36157227 C24.09861686 39.43234347 21.54751345 38.55484918 18.99023438 37.68212891 C7.00642729 33.47227403 -3.41475644 27.74245793 -13.98046875 20.73876953 C-15.27850981 19.88736786 -16.57660301 19.03604567 -17.87475586 18.18481445 C-20.59180199 16.39049222 -23.29340167 14.57756642 -25.98046875 12.73876953 C-25.38163791 6.39116266 -25.38163791 6.39116266 -23.7890625 3.80126953 C-20.42475675 1.82483073 -16.66212718 2.70194226 -12.890625 2.92626953 C-9.9477254 3.02335036 -9.9477254 3.02335036 -8.1015625 1.17626953 C-5.34303285 -0.69323123 -3.23188292 -0.55088913 0 0 Z M-5.98046875 3.73876953 C-5.98046875 5.05876953 -5.98046875 6.37876953 -5.98046875 7.73876953 C-3.85903113 9.40305228 -1.9184765 10.7166543 0.39453125 12.05126953 C0.9978125 12.42316406 1.60109375 12.79505859 2.22265625 13.17822266 C3.77914655 14.10692854 5.39671659 14.93153396 7.01953125 15.73876953 C7.67953125 15.40876953 8.33953125 15.07876953 9.01953125 14.73876953 C4.88272063 8.28053939 4.88272063 8.28053939 -1.0703125 3.85205078 C-3.15650509 3.53846714 -3.15650509 3.53846714 -5.98046875 3.73876953 Z M66.01953125 15.73876953 C66.01953125 25.96876953 66.01953125 36.19876953 66.01953125 46.73876953 C68.98953125 46.73876953 71.95953125 46.73876953 75.01953125 46.73876953 C75.01953125 36.50876953 75.01953125 26.27876953 75.01953125 15.73876953 C72.04953125 15.73876953 69.07953125 15.73876953 66.01953125 15.73876953 Z " fill="#B8A070" transform="translate(36.98046875,77.26123046875)"/>
<path d="M0 0 C2.0625 0.4375 2.0625 0.4375 4 1 C4 2.32 4 3.64 4 5 C2.68 5.33 1.36 5.66 0 6 C-0.38218767 4.34385343 -0.71395102 2.67542976 -1 1 C-0.67 0.67 -0.34 0.34 0 0 Z " fill="#B8A070" transform="translate(123,122)"/>
</svg>
