<?xml version="1.0" encoding="UTF-8"?>
<svg version="1.1" xmlns="http://www.w3.org/2000/svg" width="150" height="150">
<path d="M0 0 C3.90181283 1.32623195 7.22823786 3.6103785 10.64135742 5.87304688 C15.85332819 9.28992811 19.20647821 9.95414357 25.39453125 9.73828125 C30.50793894 9.60166349 33.95278412 10.16994402 38.37890625 12.80859375 C41.11459325 16.60815903 42.45989671 19.9714919 43.75390625 24.43359375 C45.17951268 28.93911994 47.51223694 31.20784958 51.37890625 33.80859375 C52.80177486 34.82076472 54.21828202 35.84192689 55.62890625 36.87109375 C56.62664062 37.56912109 56.62664062 37.56912109 57.64453125 38.28125 C59.63860073 40.03728866 60.49528466 41.30499924 61.37890625 43.80859375 C61.462991 48.11793729 60.96979241 52.38351537 59.31640625 56.37109375 C57.33836942 61.5139895 57.76178193 66.7816777 59.87890625 71.80859375 C61.69837535 76.17880182 62.13078206 80.12248403 61.37890625 84.80859375 C59.36779606 89.18057242 56.78964471 91.26548175 52.94140625 93.93359375 C47.26433085 98.12160019 45.71315582 103.36536554 43.37890625 109.80859375 C41.21863329 114.55452161 39.18463371 117.52173034 34.37890625 119.80859375 C30.890625 120.21484375 30.890625 120.21484375 27.06640625 120.30859375 C20.3806848 120.59520541 15.35909873 121.53653316 9.4765625 124.89453125 C4.07668919 127.90990605 -0.45878801 129.01142005 -6.62109375 127.80859375 C-8.77452185 126.8713785 -10.89901796 125.86590078 -12.99609375 124.80859375 C-18.64018759 121.96327907 -22.64374803 121.38910368 -28.890625 121.7109375 C-33.89104267 121.88977933 -38.02054132 121.23130702 -41.87109375 117.80859375 C-44.95431212 112.52307654 -46.99259025 106.82642078 -48.80859375 100.99609375 C-51.08877027 96.98612815 -53.43865059 96.06134202 -57.45703125 94.0390625 C-60.75781003 92.1622659 -62.09506943 90.25873569 -63.62109375 86.80859375 C-64.41338284 81.93509458 -63.78830649 77.89713726 -62.05859375 73.30859375 C-59.8063922 67.18175162 -60.5937683 62.15089577 -63.18359375 56.24609375 C-64.84310617 52.27769448 -65.71752102 48.99422484 -64.62109375 44.80859375 C-61.65298627 39.89873371 -57.74742908 36.76816367 -52.87109375 33.87109375 C-48.62831172 31.21036604 -47.37963194 28.97570349 -46.15625 24.1875 C-45.97964844 23.40246094 -45.80304687 22.61742188 -45.62109375 21.80859375 C-45.1648674 20.17700458 -44.68607659 18.55153587 -44.18359375 16.93359375 C-43.97863281 16.21429688 -43.77367188 15.495 -43.5625 14.75390625 C-42.25839059 12.05910756 -41.31468068 11.18104042 -38.62109375 9.80859375 C-35.64258471 9.50019436 -32.67499399 9.59029388 -29.68359375 9.62109375 C-20.98001579 9.48952226 -16.54616948 7.56686438 -9.39453125 2.5859375 C-6.07901155 0.46120305 -3.91032864 -0.35286575 0 0 Z M-13.38671875 10.1796875 C-16.48909502 12.44138488 -18.97459609 12.92568459 -22.7109375 12.984375 C-23.49533203 13.00822266 -24.27972656 13.03207031 -25.08789062 13.05664062 C-26.73085796 13.09950064 -28.37416847 13.13081068 -30.01757812 13.15039062 C-33.70408416 13.28043144 -35.9754333 13.38086916 -39.09765625 15.44921875 C-40.98652663 18.37454622 -41.48399661 20.8183246 -42.05859375 24.24609375 C-43.18729541 29.62543785 -44.05042264 32.45676827 -48.62109375 35.80859375 C-55.46701297 40.49658447 -55.46701297 40.49658447 -60.62109375 46.80859375 C-60.5450733 50.83767765 -59.55964759 54.06562521 -58.05859375 57.74609375 C-55.34772577 64.69018908 -56.51410859 69.90382878 -58.9375 76.640625 C-59.95414003 79.86482623 -60.0708409 82.46761492 -59.62109375 85.80859375 C-58.04283652 88.69062869 -56.70961477 90.38621397 -53.59765625 91.59375 C-50.03482491 92.99821082 -47.45601617 94.24350954 -45.58984375 97.74169922 C-44.24239572 100.91540115 -43.07416448 104.11978439 -42.00463867 107.3972168 C-40.22378812 113.15304743 -40.22378812 113.15304743 -35.62109375 116.80859375 C-31.77496041 117.84048318 -28.24716328 117.76411443 -24.30859375 117.62109375 C-18.58079318 117.55086186 -14.59043032 119.11235965 -9.62109375 121.80859375 C-5.58419736 123.99363172 -2.16594957 124.69356568 2.37890625 123.80859375 C4.19737171 122.90214155 5.98704974 121.93693332 7.75390625 120.93359375 C13.86870526 117.60251398 19.40770221 116.87631138 26.23583984 116.39111328 C31.6342552 116.10584922 31.6342552 116.10584922 36.37890625 113.80859375 C37.56986709 112.22474086 37.56986709 112.22474086 38.37890625 110.30859375 C38.7140625 109.59832031 39.04921875 108.88804688 39.39453125 108.15625 C40.06350765 106.56079437 40.67666795 104.94102444 41.23828125 103.3046875 C43.59871384 96.52362018 46.7315884 93.1363403 52.37890625 88.80859375 C56.519499 85.41594245 56.519499 85.41594245 57.87890625 80.43359375 C57.41721405 77.08632527 56.48203273 74.89627545 55.05859375 71.88671875 C53.13683357 66.01099221 53.55261289 59.15434161 55.94140625 53.49609375 C57.62663349 49.17311952 57.57220296 47.25900362 56.37890625 42.80859375 C53.82393566 40.24972483 53.82393566 40.24972483 50.56640625 38.24609375 C44.00462453 33.8902216 40.71876268 29.68324643 38.50390625 22.12109375 C37.25024529 18.5858659 36.71200846 17.0929493 33.81640625 14.62109375 C29.8073685 13.67350301 26.21043504 13.72004185 22.109375 13.80859375 C15.52537832 13.80859375 11.58873861 12.11402224 6.31640625 8.18359375 C3.30960106 6.00514737 1.52208862 4.84438934 -2.12109375 3.93359375 C-6.66908386 5.07059128 -9.69768556 7.34417286 -13.38671875 10.1796875 Z " fill="#B8A070" transform="translate(73.62109375,10.19140625)"/>
<path d="M0 0 C2.37160148 2.37160148 2.31983352 3.00621122 2.375 6.25 C2.25557271 10.9076644 1.0934977 13.4180553 -2 17 C-8.21236133 22.84786054 -8.21236133 22.84786054 -12.9375 23.25 C-16 23 -16 23 -17.875 22 C-19.70494618 18.74676234 -19.58627579 15.57694104 -19 12 C-17.03934551 6.60543087 -13.57302298 3.30814429 -9 0 C-5.47955362 -1.17348213 -3.57539179 -0.83679382 0 0 Z M-5 3 C-9.72665473 5.51417805 -12.4930445 8.2753531 -15 13 C-15.33709062 15.75258812 -15.33709062 15.75258812 -15 18 C-13.18783499 18.75363327 -13.18783499 18.75363327 -11 19 C-9.06672706 17.96533939 -9.06672706 17.96533939 -7.375 16.3125 C-6.78460938 15.79300781 -6.19421875 15.27351563 -5.5859375 14.73828125 C-3.11059742 12.0251622 -2.04216087 9.92753914 -1.875 6.25 C-1.936875 5.13625 -1.936875 5.13625 -2 4 C-2.99 3.67 -3.98 3.34 -5 3 Z " fill="#B8A070" transform="translate(140,107)"/>
<path d="M0 0 C1.41655793 -0.0272415 2.83327045 -0.04650467 4.25 -0.0625 C5.43335937 -0.07990234 5.43335937 -0.07990234 6.640625 -0.09765625 C8.90691002 -0.00385306 10.8288895 0.36758937 13 1 C13 2.32 13 3.64 13 5 C10.8535247 4.88655624 8.70779408 4.75893655 6.5625 4.625 C5.36753906 4.55539063 4.17257813 4.48578125 2.94140625 4.4140625 C1.97074219 4.27742188 1.00007813 4.14078125 0 4 C-0.33 3.34 -0.66 2.68 -1 2 C-0.67 1.34 -0.34 0.68 0 0 Z " fill="#B8A070" transform="translate(70,24)"/>
<path d="M0 0 C4.12751449 0.60698743 7.3321148 2.03810791 11 4 C11 4.99 11 5.98 11 7 C6.6822542 6.49202991 2.96697886 5.80317221 -1 4 C-0.67 2.68 -0.34 1.36 0 0 Z " fill="#B8A070" transform="translate(86,26)"/>
<path d="M0 0 C3.25597758 0.24118352 4.7276304 1.52224212 6.8125 3.875 C7.534375 4.90625 8.25625 5.9375 9 7 C8.67 7.99 8.34 8.98 8 10 C4.74402242 9.75881648 3.2723696 8.47775788 1.1875 6.125 C0.465625 5.09375 -0.25625 4.0625 -1 3 C-0.67 2.01 -0.34 1.02 0 0 Z " fill="#B8A070" transform="translate(34,102)"/>
<path d="M0 0 C1.32 0 2.64 0 4 0 C3.55530671 5.03985731 1.28656638 7.37634988 -2 11 C-2.99 10.67 -3.98 10.34 -5 10 C-4.3826474 5.98720812 -2.50178124 3.14509642 0 0 Z " fill="#B8A070" transform="translate(113,96)"/>
<path d="M0 0 C0.515625 0.2475 1.03125 0.495 1.5625 0.75 C0.11023858 4.57868919 -1.77068013 6.0038953 -5.4375 7.75 C-6.7575 7.75 -8.0775 7.75 -9.4375 7.75 C-9.4375 6.43 -9.4375 5.11 -9.4375 3.75 C-3.0375 -0.31153846 -3.0375 -0.31153846 0 0 Z " fill="#B8A070" transform="translate(52.4375,29.25)"/>
<path d="M0 0 C4.51478398 0.53115106 7.34666857 2.36620292 11 5 C10.67 5.99 10.34 6.98 10 8 C6.06629643 7.43804235 3.16824393 6.44407389 0 4 C0 2.68 0 1.36 0 0 Z " fill="#B8A070" transform="translate(44,112)"/>
<path d="M0 0 C-0.3315629 3.0945871 -1.02882594 4.02804686 -3.3125 6.25 C-6 8 -6 8 -10 8 C-10 4 -10 4 -8.57421875 2.48046875 C-7.95160156 2.05378906 -7.32898438 1.62710938 -6.6875 1.1875 C-6.07261719 0.74792969 -5.45773438 0.30835937 -4.82421875 -0.14453125 C-3 -1 -3 -1 0 0 Z " fill="#B8A070" transform="translate(108,108)"/>
<path d="M0 0 C1.32 0 2.64 0 4 0 C4.69965443 1.26418246 5.38434763 2.53665402 6.0625 3.8125 C6.63677734 4.87404297 6.63677734 4.87404297 7.22265625 5.95703125 C8 8 8 8 7 11 C6.01 11 5.02 11 4 11 C3.32591692 9.73308493 2.66099503 8.46129251 2 7.1875 C1.62875 6.47980469 1.2575 5.77210937 0.875 5.04296875 C0 3 0 3 0 0 Z " fill="#B8A070" transform="translate(26,90)"/>
<path d="M0 0 C1.75 0.125 1.75 0.125 4 1 C6.3125 3.8125 6.3125 3.8125 8 7 C7.75 9.375 7.75 9.375 7 11 C2.79609368 9.49860488 1.10889262 6.82724957 -1 3 C-0.67 2.01 -0.34 1.02 0 0 Z " fill="#B8A070" transform="translate(109,42)"/>
<path d="M0 0 C3.89081843 1.29693948 6.48181674 2.70699112 9 6 C8.75 8.25 8.75 8.25 8 10 C4.56404834 8.47291037 1.88087546 6.40072955 -1 4 C-0.67 2.68 -0.34 1.36 0 0 Z " fill="#B8A070" transform="translate(99,32)"/>
<path d="M0 0 C1.32 0 2.64 0 4 0 C4.33 3.96 4.66 7.92 5 12 C3.68 11.67 2.36 11.34 1 11 C-0.17571451 7.32589215 -0.07366746 3.83070817 0 0 Z " fill="#B8A070" transform="translate(23,76)"/>
<path d="M0 0 C0.99 0.33 1.98 0.66 3 1 C3 4.63 3 8.26 3 12 C1.68 12 0.36 12 -1 12 C-1.02687279 10.18757948 -1.04633715 8.37504767 -1.0625 6.5625 C-1.07410156 5.55316406 -1.08570312 4.54382813 -1.09765625 3.50390625 C-1 1 -1 1 0 0 Z " fill="#B8A070" transform="translate(120,68)"/>
<path d="M0 0 C0.99 0.33 1.98 0.66 3 1 C4.39044898 4.87862084 5 7.86462003 5 12 C3.68 12 2.36 12 1 12 C-0.47075246 7.58774263 -1.36884358 4.51718381 0 0 Z " fill="#B8A070" transform="translate(117,54)"/>
<path d="M0 0 C0.99 0 1.98 0 3 0 C2.45660208 4.56454251 1.20536179 7.9728176 -1 12 C-1.99 11.67 -2.98 11.34 -4 11 C-3.49516338 6.65840504 -2.68099266 3.50591348 0 0 Z " fill="#B8A070" transform="translate(30,48)"/>
<path d="M0 0 C-0.30878096 3.60244452 -0.99447732 4.99345998 -3.375 7.8125 C-6 10 -6 10 -9 10 C-8.69121904 6.39755548 -8.00552268 5.00654002 -5.625 2.1875 C-3 0 -3 0 0 0 Z " fill="#B8A070" transform="translate(42,37)"/>
<path d="M0 0 C3.96 0 7.92 0 12 0 C11.67 1.32 11.34 2.64 11 4 C7.37 4 3.74 4 0 4 C0 2.68 0 1.36 0 0 Z " fill="#B8A070" transform="translate(71,120)"/>
<path d="M0 0 C3.63 0.66 7.26 1.32 11 2 C11 3.32 11 4.64 11 6 C9.56163249 5.88541307 8.12429034 5.75790884 6.6875 5.625 C5.88699219 5.55539063 5.08648437 5.48578125 4.26171875 5.4140625 C2 5 2 5 -1 3 C-0.67 2.01 -0.34 1.02 0 0 Z " fill="#B8A070" transform="translate(57,118)"/>
<path d="M0 0 C1.32 0 2.64 0 4 0 C3.67 3.63 3.34 7.26 3 11 C1.68 11 0.36 11 -1 11 C-1.14285714 3.57142857 -1.14285714 3.57142857 0 0 Z " fill="#B8A070" transform="translate(24,62)"/>
<path d="M0 0 C0 1.32 0 2.64 0 4 C-3.63 4.66 -7.26 5.32 -11 6 C-11.33 5.01 -11.66 4.02 -12 3 C-8.48214012 -0.51785988 -4.80656342 -0.10924008 0 0 Z " fill="#B8A070" transform="translate(67,25)"/>
<path d="M0 0 C-0.1875 1.875 -0.1875 1.875 -1 4 C-4.37823976 5.87679987 -7.17632299 6.21849583 -11 6 C-10.9375 4.1875 -10.9375 4.1875 -10 2 C-3.87234043 -1.29078014 -3.87234043 -1.29078014 0 0 Z " fill="#B8A070" transform="translate(96,116)"/>
<path d="M0 0 C1.32 0 2.64 0 4 0 C3.53199289 4.05606165 3.12046792 7.46588679 1 11 C0.01 11 -0.98 11 -2 11 C-1.125 3.375 -1.125 3.375 0 0 Z " fill="#B8A070" transform="translate(118,83)"/>
</svg>
